# xmcd CD database file
#
# Track frame offsets:
#	150
#	19649
#	62676
#	88438
#	126345
#	150623
#	192361
#	211431
#
# Disc length: 3131 seconds
#
# Revision: 0
# Processed by: cddbd v1.5.2PL0 Copyright (c) Steve Scherf et al.
# Submitted via: CDex 1.51
#
DISCID=6f0c3908
DTITLE=Stefano Battaglia Theatrum - Originaria
DYEAR=2003
DGENRE=Jazz
TTITLE0=Originaria
TTITLE1=Atem
TTITLE2=Ode alla musa dell'antico corno
TTITLE3=Cnto della fonte
TTITLE4=Primitiva
TTITLE5=Unitas multiplex
TTITLE6=Inverni
TTITLE7=Litofonia rituale delle ombre
EXTD=YEAR: 2003
EXTT0=
EXTT1=
EXTT2=
EXTT3=
EXTT4=
EXTT5=
EXTT6=
EXTT7=
PLAYORDER=
